<?xml version="1.0" standalone="no"?>
<!DOCTYPE svg PUBLIC "-//W3C//DTD SVG 20010904//EN"
 "http://www.w3.org/TR/2001/REC-SVG-20010904/DTD/svg10.dtd">
<svg version="1.0" xmlns="http://www.w3.org/2000/svg"
 width="646.000000pt" height="621.000000pt" viewBox="0 0 646.000000 621.000000"
 preserveAspectRatio="xMidYMid meet">

<g transform="translate(0.000000,621.000000) scale(0.100000,-0.100000)"
fill="#000000" stroke="none">
<path d="M2860 6140 c-600 -70 -1071 -242 -1538 -562 -154 -106 -232 -169
-375 -308 -498 -481 -805 -1099 -889 -1790 -19 -161 -17 -537 5 -700 50 -369
172 -748 345 -1065 210 -387 527 -742 897 -1007 676 -485 1479 -689 2315 -587
576 70 1153 317 1620 692 108 87 354 336 442 447 329 417 526 844 612 1325
113 635 15 1259 -296 1869 l-24 48 -120 -129 c-65 -71 -168 -185 -229 -253
-60 -69 -152 -171 -204 -228 l-95 -103 12 -42 c122 -418 134 -745 41 -1127
-124 -508 -455 -971 -906 -1267 -539 -355 -1217 -470 -1833 -312 -187 48 -285
85 -465 175 -515 255 -907 684 -1120 1223 -100 253 -149 600 -125 890 43 530
254 978 639 1361 178 177 321 282 561 412 178 96 448 186 670 222 571 94 1161
-27 1631 -332 74 -48 132 -80 140 -76 24 11 549 578 549 593 0 21 -332 227
-510 316 -305 153 -615 247 -990 301 -133 19 -638 28 -760 14z m128 -727 c-10
-2 -26 -2 -35 0 -10 3 -2 5 17 5 19 0 27 -2 18 -5z m-81 -9 c-3 -3 -12 -4 -19
-1 -8 3 -5 6 6 6 11 1 17 -2 13 -5z m-2786 -2544 c-4 -23 -5 -22 -13 10 -9 42
1 79 11 40 4 -14 5 -36 2 -50z m4459 -1505 c0 -7 -156 -108 -207 -134 -72 -36
-48 -16 45 37 48 28 103 62 122 76 39 28 40 28 40 21z m-280 -170 c0 -9 -102
-56 -219 -102 -201 -79 -434 -138 -585 -148 -79 -5 -88 -7 109 26 181 30 407
99 580 178 123 56 115 53 115 46z m-1796 -153 c49 -14 84 -28 78 -30 -14 -4
-171 44 -192 59 -12 9 -11 10 5 4 11 -4 60 -19 109 -33z m241 -61 c77 -16 130
-30 118 -30 -26 -1 -253 46 -261 54 -7 7 -16 8 143 -24z m198 -38 c-7 -2 -21
-2 -30 0 -10 3 -4 5 12 5 17 0 24 -2 18 -5z m217 -13 l65 -7 -65 0 c-36 -1
-90 2 -120 7 l-55 7 55 0 c30 1 84 -3 120 -7z m233 3 c-18 -2 -48 -2 -65 0
-18 2 -4 4 32 4 36 0 50 -2 33 -4z"/>
<path d="M5890 5901 c-104 -33 -138 -66 -550 -521 -58 -64 -220 -241 -360
-395 -140 -153 -304 -333 -365 -399 -177 -196 -649 -709 -790 -861 -71 -77
-222 -242 -335 -365 -113 -124 -231 -253 -264 -287 l-58 -62 -53 57 c-29 31
-112 125 -186 208 -392 441 -453 503 -541 546 -204 100 -462 14 -554 -184 -26
-56 -29 -74 -29 -163 0 -91 3 -106 31 -165 36 -77 60 -105 495 -596 474 -536
540 -606 605 -650 70 -45 164 -81 238 -90 107 -13 247 28 346 101 50 36 220
223 526 575 206 238 494 567 794 910 254 289 415 476 605 700 72 85 204 240
295 344 163 188 471 548 562 656 26 31 61 85 77 120 27 57 31 76 31 152 0 64
-6 102 -21 143 -24 64 -99 152 -163 189 -94 55 -233 70 -336 37z"/>
</g>
</svg>
