<?xml version="1.0" standalone="no"?>
<!DOCTYPE svg PUBLIC "-//W3C//DTD SVG 20010904//EN"
 "http://www.w3.org/TR/2001/REC-SVG-20010904/DTD/svg10.dtd">
<svg version="1.0" xmlns="http://www.w3.org/2000/svg"
 width="784.000000pt" height="1168.000000pt" viewBox="0 0 784.000000 1168.000000"
 preserveAspectRatio="xMidYMid meet">

<g transform="translate(0.000000,1168.000000) scale(0.100000,-0.100000)"
fill="#DC2626" stroke="none">
<path d="M3490 8604 c-219 -26 -449 -80 -630 -146 -245 -90 -536 -254 -754
-426 -39 -30 -129 -114 -201 -187 -356 -361 -582 -755 -724 -1265 -30 -109
-70 -313 -77 -394 -4 -39 -10 -78 -15 -86 -8 -16 -7 -3 11 155 43 368 205 810
416 1133 40 61 71 112 68 112 -15 0 -176 -266 -239 -395 -122 -250 -185 -434
-240 -700 -53 -256 -70 -571 -44 -831 72 -731 441 -1414 1014 -1876 219 -177
437 -306 670 -398 526 -208 1020 -260 1525 -160 799 159 1505 708 1887 1470
140 279 220 539 269 875 25 166 25 525 0 685 -36 239 -88 446 -155 619 -43
112 -75 151 -123 151 -45 -1 -107 -31 -144 -71 -45 -48 -401 -495 -414 -518
-15 -29 -13 -51 16 -148 45 -155 57 -267 51 -478 -5 -150 -11 -215 -31 -310
-151 -717 -692 -1290 -1406 -1491 -68 -19 -75 -22 -37 -18 61 7 236 64 342
112 126 57 398 223 424 259 10 14 65 48 74 45 5 -1 6 2 2 7 -7 12 29 33 40 23
5 -4 5 1 2 10 -6 18 24 44 37 31 3 -3 6 1 6 10 0 10 5 17 10 17 6 0 10 8 10
18 0 11 3 13 8 5 5 -8 12 -8 26 3 19 13 19 14 1 14 -17 0 -17 1 -1 19 9 10 28
19 42 19 l25 -1 -23 -26 c-261 -299 -678 -532 -1079 -601 -486 -84 -964 19
-1398 301 -418 271 -740 746 -841 1239 -30 150 -41 258 -41 428 0 322 55 594
176 866 116 263 233 436 423 629 114 116 204 186 326 256 351 200 777 287
1139 232 308 -47 523 -127 756 -283 119 -81 156 -89 215 -47 36 26 50 42 258
304 179 225 172 215 155 257 -31 74 -445 314 -717 416 -121 45 -266 83 -436
113 -96 17 -166 22 -369 24 -137 2 -266 1 -285 -1z m508 -25 c211 -22 501 -94
667 -164 137 -58 453 -230 442 -242 -2 -2 -33 14 -68 35 -387 234 -762 344
-1219 359 -270 9 -507 -21 -769 -96 -599 -172 -1112 -561 -1475 -1118 -70
-106 -187 -327 -227 -425 -12 -32 -24 -56 -26 -54 -6 5 40 120 94 236 187 402
532 799 918 1057 316 211 704 355 1090 407 123 17 442 20 573 5z m1253 -506
c13 -16 12 -17 -3 -4 -10 7 -18 15 -18 17 0 8 8 3 21 -13z m934 -1163 c3 -5
-1 -10 -9 -10 -16 0 -456 -543 -456 -563 0 -8 -3 -8 -12 1 -8 8 -4 20 18 49
60 80 378 479 402 506 27 28 46 34 57 17z m-4872 -75 c-3 -9 -8 -14 -10 -11
-3 3 -2 9 2 15 9 16 15 13 8 -4z m-226 -807 c-3 -7 -5 -2 -5 12 0 14 2 19 5
13 2 -7 2 -19 0 -25z m-10 -175 c-3 -10 -5 -4 -5 12 0 17 2 24 5 18 2 -7 2
-21 0 -30z m30 -385 c-3 -8 -6 -5 -6 6 -1 11 2 17 5 13 3 -3 4 -12 1 -19z m10
-80 c-3 -8 -6 -5 -6 6 -1 11 2 17 5 13 3 -3 4 -12 1 -19z m10 -60 c-3 -8 -6
-5 -6 6 -1 11 2 17 5 13 3 -3 4 -12 1 -19z m4608 -20 c-60 -281 -268 -652
-503 -896 -543 -563 -1309 -759 -2032 -520 -212 71 -496 228 -645 359 -77 67
-61 62 28 -10 132 -106 343 -227 519 -295 417 -164 872 -176 1301 -35 285 93
522 239 755 464 258 249 451 559 553 888 25 80 36 101 24 45z m-4598 -20 c-3
-8 -6 -5 -6 6 -1 11 2 17 5 13 3 -3 4 -12 1 -19z m10 -50 c-3 -8 -6 -5 -6 6
-1 11 2 17 5 13 3 -3 4 -12 1 -19z m10 -50 c-3 -8 -6 -5 -6 6 -1 11 2 17 5 13
3 -3 4 -12 1 -19z m52 -168 c0 -10 -3 -8 -9 5 -12 27 -12 43 0 25 5 -8 9 -22
9 -30z m4132 -392 c-34 -49 -112 -136 -87 -98 9 14 26 40 37 58 12 17 24 32
28 32 4 0 14 11 21 25 7 14 17 25 22 25 5 0 -5 -19 -21 -42z m-2960 -205 c13
-16 12 -17 -3 -4 -10 7 -18 15 -18 17 0 8 8 3 21 -13z m64 -63 c10 -11 16 -20
13 -20 -3 0 -13 9 -23 20 -10 11 -16 20 -13 20 3 0 13 -9 23 -20z"/>
<path d="M6095 8452 c-83 -31 -108 -48 -147 -99 -123 -159 -414 -526 -444
-559 l-36 -39 24 40 c12 22 50 75 83 118 33 44 69 92 80 107 11 16 39 53 63
82 23 29 73 91 109 138 37 47 81 98 98 113 18 17 22 25 10 19 -30 -15 -68 -59
-217 -247 -171 -217 -261 -329 -387 -485 -56 -69 -192 -237 -301 -375 -109
-137 -241 -302 -292 -365 -52 -63 -251 -313 -443 -555 -192 -242 -391 -492
-442 -556 -51 -64 -93 -120 -93 -125 0 -4 23 14 50 41 28 27 50 53 50 58 0 5
16 24 35 43 19 18 35 38 35 44 0 5 4 10 9 10 5 0 11 9 14 20 3 11 12 20 21 20
9 0 16 6 16 13 0 7 18 34 40 61 22 26 40 51 40 55 0 3 10 17 23 31 12 14 36
43 52 65 17 22 71 90 120 151 50 61 102 126 117 145 131 167 162 205 179 220
11 9 19 19 19 23 0 3 21 32 46 64 25 31 67 83 92 116 26 32 64 75 85 96 20 21
37 44 37 50 0 6 5 8 10 5 6 -4 -3 -22 -20 -43 -97 -119 -149 -186 -203 -257
-34 -44 -156 -199 -272 -345 -116 -146 -251 -316 -301 -379 -139 -178 -245
-305 -260 -314 -31 -18 -61 12 -190 186 -483 653 -481 651 -579 681 -73 23
-166 22 -240 -4 -60 -21 -125 -58 -125 -73 0 -5 -6 -5 -12 -1 -7 4 -10 4 -6
-1 4 -4 -7 -24 -25 -44 -18 -20 -44 -58 -56 -84 -13 -27 -25 -46 -28 -44 -11
12 14 65 55 116 l45 56 -46 -44 c-26 -25 -58 -70 -74 -105 -24 -53 -28 -73
-28 -151 0 -84 2 -94 34 -150 19 -33 68 -105 111 -160 42 -55 209 -275 370
-490 431 -574 469 -619 557 -663 87 -44 228 -54 317 -23 120 42 113 35 616
677 196 250 546 695 759 964 63 80 180 228 260 329 80 101 326 409 546 684
450 562 476 596 500 674 40 125 0 284 -93 376 -96 94 -252 132 -367 89z m250
-37 c29 -14 59 -32 66 -41 7 -8 -11 0 -41 18 -51 31 -58 33 -149 33 -152 0
-143 7 -472 -410 -52 -66 -285 -358 -519 -650 -430 -537 -479 -598 -932 -1170
-139 -176 -300 -378 -356 -448 -127 -158 -155 -172 -214 -116 -29 28 -30 29
-4 10 32 -23 57 -26 87 -10 11 5 81 87 156 182 271 340 360 454 448 566 50 63
200 252 334 420 806 1008 793 991 981 1230 80 101 172 218 205 260 61 77 131
133 189 151 53 16 163 4 221 -25z m-1455 -1389 c0 -2 -8 -10 -17 -17 -16 -13
-17 -12 -4 4 13 16 21 21 21 13z m-1871 -523 c38 -12 70 -32 98 -60 57 -56 55
-65 -4 -14 -143 126 -389 70 -493 -113 -17 -28 -30 -44 -30 -36 0 29 60 119
102 153 104 83 210 106 327 70z"/>
<path d="M5180 4479 c0 -5 5 -7 10 -4 6 3 10 8 10 11 0 2 -4 4 -10 4 -5 0 -10
-5 -10 -11z"/>
<path d="M4050 3890 l-35 -7 35 -1 c19 0 46 4 60 8 l25 8 -25 0 c-14 0 -41 -4
-60 -8z"/>
</g>
</svg>


